<svg
  xmlns="http://www.w3.org/2000/svg"
  viewBox="0 0 512 512"
  height="512"
  width="512"
>
  <path
    d="m0 0v512h512v-512zm489.75 478.582031h-267.167969v-445.164062h267.167969zm0 0"
    fill="#ffda44"
  />
  <path
    d="m222.582031 33.417969h267.167969v445.164062h-267.167969zm0 0"
    fill="#a2001d"
  />
  <path
    d="m22.25 107.582031h200.332031v296.835938h-200.332031zm0 0"
    fill="#d80027"
  />
  <path d="m200.332031 85.332031h22.25v341.335938h-22.25zm0 0" fill="#ffda44" />
  <path
    d="m22.25 33.417969h89.082031v445.164062h-89.082031zm0 0"
    fill="#6da544"
  />
  <path d="m111.332031 33.417969h89v445.164062h-89zm0 0" fill="#ff9811" />
  <g fill="#ffda44">
    <path d="m358.667969 250.417969v-44.5c0-7.417969-11.085938-14.835938-11.085938-14.835938s-11.164062 7.417969-11.164062 14.835938h-44.5v44.5h22.25v22.25c0 4.914062 1 9.582031 2.75 13.832031l-10.167969 8.5h-29.667969v-137.332031c-12.332031 0-22.25 10-22.25 22.25v96.5c0 6.582031 2.835938 12.5 7.335938 16.582031v35.332031h14.914062v-18.5h66.75v29.667969h-14.832031v14.832031h29.667969v-29.664062l13.582031-14.835938h44.332031v29.667969h-14.832031v14.832031h29.667969v-29.664062l13.582031-14.835938 12.582031-40.332031-11.082031-19.082031h-38.917969c-14.164062-.085938-40.664062.082031-48.914062 0zm0 0" />
    <path d="m370.582031 211.832031v25.25h71.5v13.335938h4.417969v-17.75h-71.5v-16.335938h76v-4.5zm0 0" />
    <path d="m222.582031 33.417969h22.25v22.25h-22.25zm0 0" />
    <path d="m467.5 33.417969h22.25v22.25h-22.25zm0 0" />
    <path d="m222.582031 456.332031h22.25v22.25h-22.25zm0 0" />
    <path d="m467.5 456.332031h22.25v22.25h-22.25zm0 0" />
  </g>
</svg>
