<?xml version="1.0" encoding="utf-8"?>
<!-- Generator: Adobe Illustrator 24.0.1, SVG Export Plug-In . SVG Version: 6.00 Build 0)  -->
<svg version="1.1" id="Layer_1" xmlns="http://www.w3.org/2000/svg" xmlns:xlink="http://www.w3.org/1999/xlink" x="0px" y="0px"
	 width="82.3px" height="81.8px" viewBox="0 0 82.3 81.8" style="enable-background:new 0 0 82.3 81.8;" xml:space="preserve">
<style type="text/css">
	.st0{fill:#176EEC;}
</style>
<g>
	<path class="st0" d="M41.1,0.4C18.8,0.4,0.6,18.6,0.6,40.9s18.2,40.5,40.5,40.5s40.5-18.2,40.5-40.5S63.5,0.4,41.1,0.4z M41.1,8.4
		C59,8.4,73.6,23,73.6,40.9c0,7.2-2.3,13.8-6.3,19.2c-7.3-6.2-16.5-9.7-26.2-9.7c-9.6,0-19,3.5-26.2,9.7c-3.9-5.4-6.3-12-6.3-19.2
		C8.6,23,23.2,8.4,41.1,8.4z M20.4,65.9c5.8-4.9,13-7.5,20.8-7.5c7.7,0,14.9,2.6,20.8,7.5c-5.6,4.7-12.9,7.5-20.8,7.5
		S26,70.6,20.4,65.9z"/>
	<path class="st0" d="M41.1,46.4c8.5,0,15.5-7,15.5-15.5s-7-15.5-15.5-15.5s-15.5,7-15.5,15.5S32.6,46.4,41.1,46.4z M41.1,23.4
		c4.1,0,7.5,3.4,7.5,7.5s-3.4,7.5-7.5,7.5s-7.5-3.4-7.5-7.5S37,23.4,41.1,23.4z"/>
</g>
</svg>
